<svg width="300" height="150" viewBox="0 0 300 150" fill="none" xmlns="http://www.w3.org/2000/svg">
<circle r="4" transform="matrix(1 0 0 -1 296 18)" fill="white"/>
<circle r="4" transform="matrix(1 0 0 -1 280 18)" fill="white"/>
<circle r="4" transform="matrix(1 0 0 -1 264 18)" fill="white"/>
<circle r="4" transform="matrix(1 0 0 -1 296 34)" fill="white"/>
<circle r="4" transform="matrix(1 0 0 -1 280 34)" fill="white"/>
<circle r="4" transform="matrix(1 0 0 -1 264 34)" fill="white"/>
<circle r="4" transform="matrix(1 0 0 -1 296 50)" fill="white"/>
<circle r="4" transform="matrix(1 0 0 -1 280 50)" fill="white"/>
<circle r="4" transform="matrix(1 0 0 -1 264 50)" fill="white"/>
<circle r="4" transform="matrix(1 0 0 -1 248 18)" fill="white"/>
<circle r="4" transform="matrix(1 0 0 -1 232 18)" fill="white"/>
<circle r="4" transform="matrix(1 0 0 -1 216 18)" fill="white"/>
<circle r="4" transform="matrix(1 0 0 -1 248 34)" fill="white"/>
<circle r="4" transform="matrix(1 0 0 -1 232 34)" fill="white"/>
<circle r="4" transform="matrix(1 0 0 -1 216 34)" fill="white"/>
<circle r="4" transform="matrix(1 0 0 -1 248 50)" fill="white"/>
<circle r="4" transform="matrix(1 0 0 -1 232 50)" fill="white"/>
<circle r="4" transform="matrix(1 0 0 -1 216 50)" fill="white"/>
<circle r="4" transform="matrix(1 0 0 -1 200 18)" fill="white"/>
<circle r="4" transform="matrix(1 0 0 -1 184 18)" fill="white"/>
<circle r="4" transform="matrix(1 0 0 -1 168 18)" fill="white"/>
<circle r="4" transform="matrix(1 0 0 -1 200 34)" fill="white"/>
<circle r="4" transform="matrix(1 0 0 -1 184 34)" fill="white"/>
<circle r="4" transform="matrix(1 0 0 -1 168 34)" fill="white"/>
<circle r="4" transform="matrix(1 0 0 -1 200 50)" fill="white"/>
<circle r="4" transform="matrix(1 0 0 -1 184 50)" fill="white"/>
<circle r="4" transform="matrix(1 0 0 -1 168 50)" fill="white"/>
<circle r="4" transform="matrix(1 0 0 -1 152 18)" fill="white"/>
<circle r="4" transform="matrix(1 0 0 -1 136 18)" fill="white"/>
<circle r="4" transform="matrix(1 0 0 -1 120 18)" fill="white"/>
<circle r="4" transform="matrix(1 0 0 -1 152 34)" fill="white"/>
<circle r="4" transform="matrix(1 0 0 -1 136 34)" fill="white"/>
<circle r="4" transform="matrix(1 0 0 -1 120 34)" fill="white"/>
<circle r="4" transform="matrix(1 0 0 -1 152 50)" fill="white"/>
<circle r="4" transform="matrix(1 0 0 -1 136 50)" fill="white"/>
<circle r="4" transform="matrix(1 0 0 -1 120 50)" fill="white"/>
<circle r="4" transform="matrix(1 0 0 -1 104 18)" fill="white"/>
<circle r="4" transform="matrix(1 0 0 -1 88 18)" fill="white"/>
<circle r="4" transform="matrix(1 0 0 -1 72 18)" fill="white"/>
<circle r="4" transform="matrix(1 0 0 -1 104 34)" fill="white"/>
<circle r="4" transform="matrix(1 0 0 -1 88 34)" fill="white"/>
<circle r="4" transform="matrix(1 0 0 -1 72 34)" fill="white"/>
<circle r="4" transform="matrix(1 0 0 -1 104 50)" fill="white"/>
<circle r="4" transform="matrix(1 0 0 -1 88 50)" fill="white"/>
<circle r="4" transform="matrix(1 0 0 -1 72 50)" fill="white"/>
<circle r="4" transform="matrix(1 0 0 -1 56 18)" fill="white"/>
<circle r="4" transform="matrix(1 0 0 -1 40 18)" fill="white"/>
<circle r="4" transform="matrix(1 0 0 -1 24 18)" fill="white"/>
<circle r="4" transform="matrix(1 0 0 -1 56 34)" fill="white"/>
<circle r="4" transform="matrix(1 0 0 -1 40 34)" fill="white"/>
<circle r="4" transform="matrix(1 0 0 -1 24 34)" fill="white"/>
<circle r="4" transform="matrix(1 0 0 -1 56 50)" fill="white"/>
<circle r="4" transform="matrix(1 0 0 -1 40 50)" fill="white"/>
<circle r="4" transform="matrix(1 0 0 -1 24 50)" fill="white"/>
<circle r="4" transform="matrix(1 0 0 -1 296 66)" fill="white"/>
<circle r="4" transform="matrix(1 0 0 -1 280 66)" fill="white"/>
<circle r="4" transform="matrix(1 0 0 -1 264 66)" fill="white"/>
<circle r="4" transform="matrix(1 0 0 -1 296 82)" fill="white"/>
<circle r="4" transform="matrix(1 0 0 -1 280 82)" fill="white"/>
<circle r="4" transform="matrix(1 0 0 -1 264 82)" fill="white"/>
<circle r="4" transform="matrix(1 0 0 -1 296 98)" fill="white"/>
<circle r="4" transform="matrix(1 0 0 -1 280 98)" fill="white"/>
<circle r="4" transform="matrix(1 0 0 -1 264 98)" fill="white"/>
<circle r="4" transform="matrix(1 0 0 -1 296 114)" fill="white"/>
<circle r="4" transform="matrix(1 0 0 -1 280 114)" fill="white"/>
<circle r="4" transform="matrix(1 0 0 -1 264 114)" fill="white"/>
<circle r="4" transform="matrix(1 0 0 -1 296 130)" fill="white"/>
<circle r="4" transform="matrix(1 0 0 -1 280 130)" fill="white"/>
<circle r="4" transform="matrix(1 0 0 -1 264 130)" fill="white"/>
<circle r="4" transform="matrix(1 0 0 -1 296 146)" fill="white"/>
<circle r="4" transform="matrix(1 0 0 -1 280 146)" fill="white"/>
<circle r="4" transform="matrix(1 0 0 -1 264 146)" fill="white"/>
</svg>
