<svg width="300" height="150" viewBox="0 0 300 150" fill="none" xmlns="http://www.w3.org/2000/svg">
<circle cx="296" cy="146" r="4" fill="white"/>
<circle cx="280" cy="146" r="4" fill="white"/>
<circle cx="264" cy="146" r="4" fill="white"/>
<circle cx="296" cy="130" r="4" fill="white"/>
<circle cx="280" cy="130" r="4" fill="white"/>
<circle cx="264" cy="130" r="4" fill="white"/>
<circle cx="296" cy="114" r="4" fill="white"/>
<circle cx="280" cy="114" r="4" fill="white"/>
<circle cx="264" cy="114" r="4" fill="white"/>
<circle cx="248" cy="146" r="4" fill="white"/>
<circle cx="232" cy="146" r="4" fill="white"/>
<circle cx="216" cy="146" r="4" fill="white"/>
<circle cx="248" cy="130" r="4" fill="white"/>
<circle cx="232" cy="130" r="4" fill="white"/>
<circle cx="216" cy="130" r="4" fill="white"/>
<circle cx="248" cy="114" r="4" fill="white"/>
<circle cx="232" cy="114" r="4" fill="white"/>
<circle cx="216" cy="114" r="4" fill="white"/>
<circle cx="200" cy="146" r="4" fill="white"/>
<circle cx="184" cy="146" r="4" fill="white"/>
<circle cx="168" cy="146" r="4" fill="white"/>
<circle cx="200" cy="130" r="4" fill="white"/>
<circle cx="184" cy="130" r="4" fill="white"/>
<circle cx="168" cy="130" r="4" fill="white"/>
<circle cx="200" cy="114" r="4" fill="white"/>
<circle cx="184" cy="114" r="4" fill="white"/>
<circle cx="168" cy="114" r="4" fill="white"/>
<circle cx="152" cy="146" r="4" fill="white"/>
<circle cx="136" cy="146" r="4" fill="white"/>
<circle cx="120" cy="146" r="4" fill="white"/>
<circle cx="152" cy="130" r="4" fill="white"/>
<circle cx="136" cy="130" r="4" fill="white"/>
<circle cx="120" cy="130" r="4" fill="white"/>
<circle cx="152" cy="114" r="4" fill="white"/>
<circle cx="136" cy="114" r="4" fill="white"/>
<circle cx="120" cy="114" r="4" fill="white"/>
<circle cx="104" cy="146" r="4" fill="white"/>
<circle cx="88" cy="146" r="4" fill="white"/>
<circle cx="72" cy="146" r="4" fill="white"/>
<circle cx="104" cy="130" r="4" fill="white"/>
<circle cx="88" cy="130" r="4" fill="white"/>
<circle cx="72" cy="130" r="4" fill="white"/>
<circle cx="104" cy="114" r="4" fill="white"/>
<circle cx="88" cy="114" r="4" fill="white"/>
<circle cx="72" cy="114" r="4" fill="white"/>
<circle cx="56" cy="146" r="4" fill="white"/>
<circle cx="40" cy="146" r="4" fill="white"/>
<circle cx="24" cy="146" r="4" fill="white"/>
<circle cx="56" cy="130" r="4" fill="white"/>
<circle cx="40" cy="130" r="4" fill="white"/>
<circle cx="24" cy="130" r="4" fill="white"/>
<circle cx="56" cy="114" r="4" fill="white"/>
<circle cx="40" cy="114" r="4" fill="white"/>
<circle cx="24" cy="114" r="4" fill="white"/>
<circle cx="296" cy="98" r="4" fill="white"/>
<circle cx="280" cy="98" r="4" fill="white"/>
<circle cx="264" cy="98" r="4" fill="white"/>
<circle cx="296" cy="82" r="4" fill="white"/>
<circle cx="280" cy="82" r="4" fill="white"/>
<circle cx="264" cy="82" r="4" fill="white"/>
<circle cx="296" cy="66" r="4" fill="white"/>
<circle cx="280" cy="66" r="4" fill="white"/>
<circle cx="264" cy="66" r="4" fill="white"/>
<circle cx="296" cy="50" r="4" fill="white"/>
<circle cx="280" cy="50" r="4" fill="white"/>
<circle cx="264" cy="50" r="4" fill="white"/>
<circle cx="296" cy="34" r="4" fill="white"/>
<circle cx="280" cy="34" r="4" fill="white"/>
<circle cx="264" cy="34" r="4" fill="white"/>
<circle cx="296" cy="18" r="4" fill="white"/>
<circle cx="280" cy="18" r="4" fill="white"/>
<circle cx="264" cy="18" r="4" fill="white"/>
</svg>
